<svg width="150" height="150" viewBox="0 0 64 64" xmlns="http://www.w3.org/2000/svg">
  <style>
    .icon {
      fill: none;
      stroke: yellow;
      stroke-width: 2;
      stroke-linecap: round;
      stroke-linejoin: round;
    }
  </style>
  <!-- Speech bubble -->
  <path d="M32 4a28 28 0 1028 28A28.03 28.03 0 0032 4zm0 52a24 24 0 110-48 24.03 24.03 0 0124 24 24.03 24.03 0 01-24 24z" class="icon"/>
  <!-- Text lines -->
  <line x1="20" y1="22" x2="44" y2="22" class="icon"/>
  <line x1="20" y1="30" x2="44" y2="30" class="icon"/>
  <line x1="20" y1="38" x2="36" y2="38" class="icon"/>
  <!-- Neural network pattern -->
  <!-- Nodes -->
  <circle cx="10" cy="10" r="2" class="icon"/>
  <circle cx="54" cy="10" r="2" class="icon"/>
  <circle cx="10" cy="54" r="2" class="icon"/>
  <circle cx="54" cy="54" r="2" class="icon"/>
  <circle cx="32" cy="32" r="2" class="icon"/>
  <!-- Connections -->
  <line x1="10" y1="10" x2="32" y2="32" class="icon"/>
  <line x1="54" y1="10" x2="32" y2="32" class="icon"/>
  <line x1="10" y1="54" x2="32" y2="32" class="icon"/>
  <line x1="54" y1="54" x2="32" y2="32" class="icon"/>
</svg>
